<?xml version="1.0" encoding="UTF-8"?> <!-- Generator: Adobe Illustrator 16.0.0, SVG Export Plug-In . SVG Version: 6.00 Build 0) --> <svg xmlns="http://www.w3.org/2000/svg" xmlns:xlink="http://www.w3.org/1999/xlink" id="Layer_1" x="0px" y="0px" width="149.008px" height="72.5px" viewBox="0 0 149.008 72.5" xml:space="preserve"> <g> <rect x="79.729" y="53.616" fill="none" width="15.669" height="1.744"></rect> <g> <path fill="#222222" d="M86.875,46.154c0-0.032,0.224-0.217,0.498-0.338c0.275-0.121,0.475-0.182,0.599-0.182 c0.286,0,0.448,0.115,0.498,0.347c0.068,0.416,0.188,0.863,0.359,1.342c0.171,0.48,0.433,1.009,0.782,1.585 c0.348,0.579,0.754,1.096,1.217,1.552c0.464,0.455,1.048,0.841,1.761,1.151c0.709,0.313,1.475,0.468,2.299,0.468 c0.37,0,0.729-0.039,1.075-0.121c0.348-0.08,0.684-0.196,1.007-0.347c0.324-0.149,0.617-0.343,0.879-0.58 c0.259-0.235,0.486-0.508,0.684-0.812c0.197-0.308,0.35-0.665,0.46-1.075c0.111-0.41,0.166-0.857,0.166-1.344 c0-0.322-0.033-0.638-0.104-0.943c-0.07-0.306-0.183-0.598-0.339-0.875c-0.155-0.276-0.309-0.529-0.459-0.763 c-0.15-0.23-0.363-0.467-0.635-0.71c-0.272-0.241-0.509-0.446-0.713-0.614c-0.202-0.168-0.474-0.365-0.813-0.591 c-0.344-0.225-0.614-0.4-0.817-0.527c-0.201-0.127-0.488-0.302-0.86-0.528c-0.37-0.225-0.636-0.383-0.8-0.478 c-0.067-0.045-0.159-0.102-0.275-0.172c-0.429-0.267-0.753-0.472-0.975-0.615c-0.224-0.145-0.534-0.355-0.935-0.632 c-0.399-0.277-0.709-0.509-0.933-0.694c-0.221-0.185-0.5-0.426-0.829-0.729c-0.331-0.3-0.591-0.571-0.78-0.813 c-0.187-0.242-0.391-0.536-0.615-0.875c-0.222-0.339-0.391-0.674-0.505-1.004c-0.113-0.329-0.21-0.693-0.289-1.091 c-0.081-0.4-0.12-0.811-0.12-1.239c0-0.993,0.227-1.935,0.688-2.824c0.457-0.89,1.06-1.637,1.806-2.243 c0.743-0.607,1.598-1.086,2.56-1.438c0.964-0.352,1.944-0.528,2.941-0.528c1.488,0,5.096-0.004,5.166-0.004 c0.218,0,0.27,0,0.633,0c0.119,0,0.679,0,0.825,0v-0.006c0,0,0.005,4.664,0.001,7.151c0,0.189-0.179,0.327-0.431,0.327 c-0.693,0-1.064-0.123-1.109-0.364c-0.057-0.427-0.172-0.885-0.347-1.37c-0.175-0.484-0.414-0.976-0.719-1.472 c-0.303-0.497-0.646-0.944-1.03-1.343c-0.383-0.398-0.838-0.722-1.367-0.97c-0.53-0.249-1.082-0.373-1.656-0.373 c-1.238,0-2.191,0.347-2.856,1.04c-0.666,0.692-0.998,1.623-0.998,2.79c0,0.275,0.032,0.551,0.104,0.822 c0.069,0.272,0.148,0.517,0.235,0.736c0.086,0.221,0.226,0.458,0.416,0.711c0.19,0.255,0.354,0.467,0.494,0.641 s0.351,0.382,0.634,0.625c0.282,0.241,0.507,0.432,0.67,0.57c0.161,0.139,0.413,0.329,0.754,0.572 c0.342,0.242,0.592,0.412,0.748,0.511c0.155,0.098,0.424,0.271,0.806,0.519c0.382,0.25,0.637,0.414,0.765,0.494 c0.175,0.116,0.445,0.29,0.816,0.521c0.336,0.207,0.589,0.369,0.764,0.486c0.172,0.114,0.415,0.285,0.732,0.51 c0.316,0.225,0.565,0.416,0.749,0.571c0.185,0.156,0.415,0.356,0.694,0.6c0.275,0.241,0.499,0.466,0.666,0.675 c0.166,0.208,0.354,0.446,0.565,0.718c0.212,0.271,0.378,0.547,0.5,0.824c0.125,0.276,0.243,0.574,0.359,0.891 c0.117,0.319,0.199,0.653,0.249,1.006c0.052,0.352,0.076,0.72,0.076,1.101c0,1.051-0.231,2.039-0.694,2.962 c-0.464,0.924-1.081,1.695-1.85,2.312c-0.768,0.618-1.646,1.106-2.634,1.464c-0.988,0.358-2.003,0.537-3.042,0.537 c-0.166,0-2.396-0.001-2.477-0.001c-0.084,0-2.429,0-2.479,0c-0.089,0-3.207-0.004-3.207-0.004c0-0.987-0.003-3.053-0.003-4.525 C86.878,47.693,86.878,47.158,86.875,46.154z"></path> <path fill="#222222" d="M16.47,31.215c0-0.225,0.024-0.35,0.072-0.374c1.091-0.475,2.347-1.03,3.766-1.665 c1.418-0.636,2.506-1.125,3.259-1.47c0.753-0.343,1.147-0.516,1.183-0.516h0.089c0.107,0,0.199,0.078,0.275,0.232 c0.079,0.153,0.135,0.309,0.172,0.463c-0.25,0.867-0.375,2.154-0.375,3.864v16.239c0,1.698,0.094,2.833,0.284,3.4 c0.072,0.215,0.424,0.383,1.06,0.508c0.635,0.124,1.149,0.188,1.541,0.188c0.083,0.118,0.125,0.342,0.125,0.669 c0,0.325-0.042,0.549-0.125,0.665c-2.159-0.166-3.84-0.248-5.039-0.248c-1.14,0-2.79,0.082-4.95,0.248 c-0.083-0.116-0.125-0.34-0.125-0.665c0-0.327,0.042-0.551,0.125-0.669c0.414,0,0.936-0.063,1.559-0.188 c0.622-0.125,0.968-0.293,1.042-0.508c0.188-0.567,0.284-1.702,0.284-3.4V32.924c0-0.711-0.062-1.196-0.187-1.45 c-0.125-0.256-0.348-0.384-0.669-0.384c-0.248,0-0.7,0.098-1.352,0.294c-0.655,0.196-1.165,0.383-1.532,0.561 c-0.083-0.06-0.162-0.127-0.232-0.206c-0.07-0.076-0.129-0.163-0.177-0.257S16.47,31.298,16.47,31.215z"></path> <path fill="#222222" d="M28.804,40.281c0-1.779,0.227-3.47,0.676-5.07c0.451-1.6,1.07-2.992,1.863-4.177 c0.792-1.186,1.756-2.129,2.889-2.833c1.134-0.705,2.349-1.056,3.645-1.056c1.833,0,3.46,0.56,4.883,1.679 c1.421,1.12,2.522,2.674,3.301,4.665c0.777,1.992,1.164,4.256,1.164,6.793c0,1.772-0.23,3.459-0.695,5.061 c-0.462,1.603-1.1,2.994-1.909,4.175c-0.808,1.181-1.798,2.12-2.971,2.818s-2.43,1.048-3.772,1.048 c-1.739,0-3.3-0.551-4.679-1.652c-1.379-1.103-2.458-2.653-3.231-4.653C29.191,45.077,28.804,42.812,28.804,40.281z M33.161,40.445c0,2.12,0.202,4.044,0.608,5.775c0.406,1.727,0.96,3.081,1.667,4.056c0.706,0.976,1.488,1.463,2.349,1.463 c0.786,0,1.483-0.315,2.091-0.947c0.607-0.633,1.098-1.501,1.464-2.603c0.367-1.104,0.646-2.359,0.827-3.769 c0.187-1.409,0.277-2.938,0.277-4.59c0-2.144-0.182-4.054-0.542-5.728c-0.363-1.675-0.884-2.979-1.566-3.913 c-0.682-0.933-1.465-1.4-2.349-1.4c-0.993,0-1.863,0.523-2.605,1.573c-0.744,1.047-1.299,2.445-1.667,4.192 S33.161,38.264,33.161,40.445z"></path> <g> <g> <path fill="#222222" d="M51.604,24.195c0.766-0.389,1.272-0.584,1.523-0.584c0.295,0,0.442,0.175,0.442,0.522 c0,0.536-0.516,1.334-1.543,2.394l-0.834,0.833l2.043,3.204l1.138-0.764l0.304,0.484c-0.161,0.369-0.467,0.727-0.92,1.076 c-0.468,0.363-0.907,0.546-1.316,0.546c-0.268,0-0.479-0.123-0.641-0.367l-2.01-3.017l-0.337,0.468 c-0.557,0.754-0.835,1.365-0.835,1.832c0,0.171,0.035,0.328,0.103,0.468l-0.39,0.227c-0.457,0.259-0.824,0.39-1.1,0.39 c-0.316,0-0.477-0.165-0.477-0.492c0-0.514,0.553-1.369,1.654-2.564l0.928-0.999l-1.817-2.759l-1.146,0.733l-0.305-0.491 c0.101-0.239,0.409-0.575,0.928-1.006c0.571-0.478,1.046-0.717,1.421-0.717c0.166,0,0.303,0.073,0.412,0.219l1.918,2.845 c0.671-0.868,1.008-1.502,1.008-1.902c0-0.131-0.02-0.242-0.057-0.335L51.604,24.195z"></path> </g> </g> <path fill="#6E3C95" d="M42.232,54.001c4.142-0.207,10.299-1.092,14.844-2.956c6.414-2.632,12.241-5.796,17.8-13.305 c4.994-6.75,5.262-17.267,5.262-17.267h2.897c0,0-0.111,6.008-2.603,11.559c-2.571,5.738-7.01,11.283-13.479,15.346 c-5.323,3.34-10.617,4.865-12.864,5.411C48.117,54.238,42.232,54.001,42.232,54.001z"></path> <path fill="#222222" d="M70.985,40.933c-1.329,1.477-3.844,3.517-4.791,4.197C65.05,45.953,64,45.722,64,44.524s0-15.677,0-15.677 l-2.817-0.399v-1.263c0,0,10.288,0,11.289,0c2.173,0,4.406,0.449,5.675,0.931c0.644,0.244,3.373,1.22,4.99,2.905 c1.619,1.686,2.483,2.927,3.193,5.587c0.711,2.662,0.376,5.057,0.156,6.253c-0.222,1.197-0.777,3.703-2.528,5.743 s-3.188,3.096-6.741,4.148c-1.796,0.53-3.882,0.619-5.211,0.619c-1.331,0-10.909,0-10.909,0v-1.263c0,0,1.75-0.29,1.905-0.354 c1.377-0.6,0.683-1.163,1.73-1.834c1.197-0.771,5.919-3.954,5.919-3.954s-1.494,1.816-2.062,2.711 c-0.826,1.304-0.716,2.38-0.082,2.966c0.259,0.235,0.695,0.222,3.365,0.222c1.884,0,4.786-0.47,7.006-2.728 c1.288-1.309,1.93-3.105,2.107-3.814c0.175-0.711,0.757-2.964,0.555-6.008c-0.2-2.996-0.738-3.791-1.021-4.68 c-0.399-1.264-2.13-3.348-3.192-4.058c-1.063-0.71-2.668-1.767-5.97-1.767c-0.983,0-2.836,0-2.836,0 c0,1.895,0.005,2.074,0.005,2.585c0,6.739,0.002,9.449,0.002,9.804c0,0.444,0.372,0.644,0.814,0.487 C69.786,41.531,70.985,40.933,70.985,40.933z"></path> </g> </g> <g> <path fill="#222222" d="M108.431,34.021v-6.313h-2.358v-0.845h5.674v0.845h-2.368v6.313H108.431z"></path> <path fill="#222222" d="M112.688,34.021v-7.158h1.426l1.694,5.068c0.156,0.473,0.271,0.826,0.342,1.061 c0.081-0.261,0.208-0.644,0.381-1.148l1.714-4.98h1.274v7.158h-0.913V28.03l-2.08,5.991h-0.854l-2.07-6.093v6.093H112.688z"></path> </g> </svg> 